<?xml version="1.0" encoding="utf-8"?>
<!-- Generator: Adobe Illustrator 27.8.0, SVG Export Plug-In . SVG Version: 6.00 Build 0)  -->
<svg version="1.1" id="Ebene_1" xmlns="http://www.w3.org/2000/svg" xmlns:xlink="http://www.w3.org/1999/xlink" x="0px" y="0px"
	 viewBox="0 0 841.89 405.64" style="enable-background:new 0 0 841.89 405.64;" xml:space="preserve">
<style type="text/css">
	.st0{fill:#000350;}
</style>
<g>
	<g>
		<path class="st0" d="M50.8,137.47c7.25-0.03,15.82,2.58,18.81,8.82c1.66,2.96,2,6.91,2.02,10.54c0.01,2.96-0.31,5.6-0.3,8.24
			c0,0.66,0,1.32,0.01,1.98c1.02,8.23,2.37,16.13,2.73,24.37c0.02,5.27,2.02,10.21,2.37,15.48c0.03,8.56-1.9,21.09-2.19,29.66
			c0,1.32,0.01,2.31,0.01,3.62c0.02,5.27,0.37,10.87,1.05,16.14c0,0.99,0.01,2.31,0.01,3.62c0.01,1.65,0.01,3.62,1.01,4.61
			c0.66,0.66,1.32,0.65,1.98,0.65c2.31-0.01,5.26-1.67,6.91-2.66c6.57-4.64,10.5-10.91,15.75-17.19
			c4.92-5.62,13.13-12.24,18.38-17.86c3.28-3.64,6.56-7.93,8.85-11.89c3.6-6.27,10.48-16.18,18.72-16.22c0.33,0,0.66,0,0.99,0
			c3.95-0.01,8.24,1.29,11.21,3.25c2.31,1.64,4.3,3.94,6.61,6.24c1.98,2.3,2.98,4.6,2.99,6.91c0.02,5.6-4.9,11.88-9.16,16.18
			c-5.91,5.95-7.21,11.23-13.11,17.18c-5.91,5.29-12.48,9.93-17.4,16.21c-2.29,3.3-8.53,9.26-8.51,13.87l0,0.33
			c1.01,5.93,9.93,12.15,13.24,16.75c7.94,9.2,14.24,19.39,21.86,28.91c4.3,5.58,10.58,11.16,13.24,17.74
			c0.67,1.64,1,2.96,1.01,4.61c0.03,8.9-8.5,17.5-16.07,20.16c-1.97,0.67-3.95,1-5.93,1.01c-7.25,0.03-13.2-4.89-17.83-10.48
			c-3.31-3.94-6.62-6.89-9.27-10.84c-3.64-5.26-6.97-12.49-10.94-17.42c-4.64-6.24-9.28-13.47-14.24-19.05
			c-4.96-5.25-8.61-10.51-13.89-14.77c-1.32-1.31-2.98-2.62-4.62-2.62c-0.66,0-1.65,0.34-2.3,1c-1.97,1.32-1.63,3.96-2.28,5.94
			c0.02,4.94,0.04,9.55,0.06,14.5c0,0.33,0,0.66,0,0.99c0.02,5.6-2.91,14.51-2.89,19.78c-0.29,9.88,0.73,19.76-5.16,28.68
			c-4.26,6.28-11.17,9.6-17.75,9.62c-5.93,0.02-11.54-2.59-15.18-7.52c-2.32-2.96-2.99-6.58-3-10.2c-0.02-5.6,1.6-11.87,1.91-17.14
			c0.3-7.58,2.25-15.49,2.55-23.07c0-1.32-0.01-2.31-0.01-3.62c-0.02-4.61-0.37-9.55-0.38-14.17c-0.01-1.98-0.02-4.28,0.31-6.26
			c0.62-10.55,1.9-20.76,2.52-30.98c-0.01-2.96-0.35-5.93-0.36-8.89c0-0.66-0.01-1.65-0.01-2.31c0.3-7.58,2.25-15.82,2.22-23.73
			c0-0.66,0-0.99-0.01-1.65c-0.04-11.2-2.06-22.4-2.11-33.93c0-0.66-0.01-1.65-0.01-2.31c0-0.33,0-0.99,0-1.32
			c-0.02-5.27-1.68-9.88-1.7-15.15c0-0.33,0-0.99,0-1.32c-0.01-2.64-0.68-4.94-0.69-7.57c-0.01-2.31-0.02-4.61-0.03-6.92
			c-0.02-6.26,0.61-11.53,7.84-16.17c1.31-0.66,2.96-1.33,4.28-1.66C46.85,137.82,48.82,137.48,50.8,137.47z"/>
		<path class="st0" d="M210.84,206.05c4.28-0.02,8.57,1.29,12.21,4.89c2.32,2.63,6.96,9.86,10.59,11.16
			c0.66,0.33,0.99,0.33,1.65,0.32c2.97-0.01,6.58-1.67,8.88-3c5.59-2.99,11.18-4.98,17.44-5.67c0.33,0,0.99,0,1.32,0
			c5.27-0.02,11.54,1.93,16.16,4.88c3.3,1.96,4.63,5.91,4.65,10.19c0.02,5.93-2.59,12.53-5.54,15.84
			c-5.91,6.28-12.83,5.65-19.74,7.32c-7.24,1.67-10.53,3.67-16.45,5.99c-5.59,2.33-3.29,2.32-6.23,7.93
			c-1.31,2.31-1.92,15.16-1.88,25.38c0.01,3.62,0.03,6.92,0.36,9.22c0.7,11.86,0.42,23.72,1.78,35.25c0.34,2.3,0.35,4.28,0.35,6.59
			c0.04,10.21-2.89,20.44-14.41,22.79c-1.65,0.34-2.96,0.67-4.61,0.68c-8.24,0.03-17.15-4.22-19.49-12.44
			c-1-3.95-1.02-8.23-1.04-12.19c-0.01-3.29-0.02-6.59-0.04-9.55c-0.03-8.57-0.39-16.8-0.43-25.37c-0.01-3.62,0.95-10.55,0.93-14.17
			c-0.01-2.96-0.02-6.59-0.04-9.88c-0.01-3.29-0.02-6.59-0.37-9.88c-1.03-11.2-2.05-18.44-2.09-29.97
			c-0.02-5.6-1.03-9.55-1.05-15.15c-0.01-2.97-0.35-5.6-0.36-8.23c-0.02-4.28,0.96-8.24,6.22-10.9c1.31-0.66,2.96-1,4.61-1.34
			C206.56,206.4,208.54,206.06,210.84,206.05z"/>
		<path class="st0" d="M342.35,219.39c0,1.32,0.01,2.31-0.32,3.63c-0.95,8.9-1.26,15.82-1.88,24.72c-0.3,8.24-1.25,17.79-1.55,26.03
			c-0.31,5.93-0.94,11.87-0.92,17.47c0.05,13.51,2.11,35.24,2.49,48.42c0.34,3.62,1.34,6.91,1.36,10.54c0,0.99-0.32,1.65-0.32,2.64
			c-1.28,10.22-9.82,17.5-19.37,18.52c-0.33,0-0.99,0-1.32,0c-5.6,0.02-10.56-3.91-13.21-8.52c-5.63-8.22-6.98-16.78-7.35-26.33
			c-0.68-6.59-1.4-21.74-1.75-28.33c-0.01-3.62-0.68-6.92-0.7-10.54c0-0.66,0-0.99-0.01-1.65c-0.02-5.93,1.27-11.54,1.58-17.8
			c0.31-4.94,0.28-11.86,0.26-16.8c-0.01-1.65-0.01-3.95-0.02-6.26c-0.01-2.31-0.02-4.28,0.31-6.26c0.64-5.6,0.95-11.54,1.91-17.47
			c0.95-8.9-0.74-21.08,5.49-28.35c2.62-3.31,5.59-3.98,9.21-3.99c2.97-0.01,5.93,0.64,8.9,0.62
			C336.01,200.31,342.31,209.51,342.35,219.39z"/>
		<path class="st0" d="M400.14,169.42c10.21-0.04,19.79,7.17,21.15,17.38c0,0.66,0,0.99,0.01,1.65c0.01,2.64-0.31,5.93-0.29,8.9
			c0.01,2.97,0.35,5.6,2.33,7.24c2.64,1.97,8.25,3.26,11.55,3.58c2.97-0.01,5.6-0.68,8.56-0.69c0.66,0,1.32,0,2.31-0.01
			c12.85-0.05,30.32,2.52,30.71,18.33c0.01,2.97-0.64,5.27-1.62,7.91c-1.63,3.63-4.58,7.92-8.2,9.92c-1.64,0.99-3.29,1-5.27,1.01
			c-1.65,0.01-3.29,0.01-4.61,0.02c-6.26,0.02-12.19,0.05-18.45,0.4c-2.31,0.01-4.61-0.31-6.59-0.3c-3.29,0.01-5.93,1.01-6.9,5.63
			c-0.33,0.99-0.32,2.31-0.32,3.3c0,0.99,0.01,2.31,0.01,3.29c-0.31,5.93-1.94,10.88-1.91,16.81c0,0.66,0.01,1.65,0.01,2.64
			c0,0.66,0.33,1.32,0.34,1.98c0.01,2.31-0.64,4.94-0.63,7.25c0,0.66,0,0.99,0.01,1.65c0.69,7.9,0.39,16.14,0.75,24.05
			c0.03,6.92,0.06,17.13,5.68,21.72c1.32,1.31,3.63,1.63,6.6,1.62c5.27-0.02,12.18-1.36,14.82-1.7c0.33,0,0.66,0,0.99,0
			c6.26-0.02,8.91,3.59,12.55,8.85c1,1.97,1.66,3.62,1.67,5.59c0.01,1.98-0.64,3.63-0.97,5.61c-2.27,10.22-7.85,13.87-18.39,16.87
			c-3.62,1-7.57,1.68-11.2,1.69c-19.11,0.07-37.94-12.7-44.92-30.47c-4.66-11.84-6.02-22.71-6.72-34.9
			c-0.69-7.91-0.4-18.45-0.76-26.36c-0.02-4.28,0.63-7.58,0.94-11.86c-0.01-2.31,0.31-4.61,0.3-7.25c-0.01-2.97-0.35-6.26-1.02-9.22
			c-1.68-8.89-11.22-5.23-17.17-8.83c-6.93-4.26-8.27-9.19-8.3-16.11c-0.01-1.98,0.31-4.28,0.3-6.92
			c0.3-7.58,7.86-11.56,15.11-11.59c1.98-0.01,4.29,0.64,6.26,0.64c1.65-0.01,2.96-0.34,3.95-1.66c1.31-0.99,1.31-2.31,1.3-3.96
			c0-0.99-0.01-1.98-0.01-2.97c0-0.66,0-1.32-0.01-1.98c-0.01-2.97-0.36-6.92-0.37-10.87c-0.02-6.59,0.94-13.51,6.2-15.84
			c1.97-0.67,4.28-1.33,6.58-1.67C397.83,169.43,398.82,169.43,400.14,169.42z"/>
		<path class="st0" d="M508.32,202.94c1.65-0.01,2.96-0.01,4.28-0.02c10.87,0.29,21.41-0.08,32.62,1.19
			c11.87,1.6,21.1,2.56,31.97,2.52c2.97-0.01,5.6-0.35,8.89-0.36c0.33,0,0.99,0,1.32,0c11.2-0.04,22.43,6.83,22.47,17.71
			c0.01,2.31-0.64,4.62-1.62,7.25c-1.63,3.96-5.24,7.27-7.54,11.23c-7.86,13.54-21.64,27.43-30.49,40.64
			c-1.97,2.64-4.6,4.3-6.56,6.61c-2.62,3.96-3.92,8.25-6.54,12.22c-3.6,5.61-6.56,8.59-10.16,14.53c-0.98,1.65-2.29,4.29-2.28,6.6
			c0,0.33,0,0.66,0,0.99c1.33,4.61,10.89,4.9,16.16,4.88c0.66,0,1.32,0,1.65-0.01c13.18,1.27,31.62-2.1,42.2,8.41
			c2.98,2.95,4.31,6.57,4.32,10.53c0.03,8.89-6.85,18.15-14.75,20.48c-1.97,0.67-3.95,0.67-5.93,0.68
			c-3.62,0.01-7.25-0.63-10.55-0.95c-6.92-0.63-13.84-0.61-20.76-1.24c-0.99,0-1.65,0.01-2.63,0.01c-5.27,0.02-10.87,0.7-16.47,0.72
			c-4.28,0.02-8.24-0.3-11.87-1.93c-0.99-0.33-3.63-0.65-6.59-0.64c-3.95,0.01-8.57,0.36-11.86,0.38c-1.32,0-2.3,0.01-2.96,0.01
			c-5.6-0.64-10.21,0.04-14.84-4.23c-1.98-1.64-2.98-3.94-4.31-5.91c-0.66-1.32-1-2.63-1-4.28c-0.03-7.25,5.86-17.81,9.14-23.1
			c1.64-3.3,4.91-8.59,6.88-11.23c3.6-5.61,7.86-10.9,11.14-16.85c5.24-8.59,8.18-15.85,14.41-24.11
			c4.92-6.61,13.11-16.85,18.36-23.46c1.64-1.32,4.92-4.63,4.91-7.27c0-0.33,0-0.66,0-0.99c-0.67-2.3-2.97-2.3-4.62-2.62
			c-3.63-0.31-7.58-0.96-10.88-1.6c-3.3-0.65-5.93-0.97-8.57-0.96c-4.28,0.02-7.9,0.69-13.17,0.71c-3.29,0.01-6.59,0.35-9.88,0.37
			c-4.94,0.02-9.56-0.95-13.86-5.22c-3.31-3.28-5.31-9.2-5.33-15.13c-0.02-4.28,0.96-8.24,3.25-10.88c2.62-3.3,7.23-4.64,11.18-5.31
			C500.09,202.98,504.7,202.96,508.32,202.94z"/>
		<path class="st0" d="M737.93,280.81c-0.98,1.65-0.97,4.29-2.61,5.61c-2.95,2.98-7.23,3.65-11.52,3.67
			c-3.29,0.01-6.59-0.63-9.23-0.62c-4.94-0.31-10.55-0.62-16.15-0.6c-13.18,0.05-27.01,1.09-38.54,1.79
			c-5.93,0.35-4.27,3.97-4.91,8.59c0,0.66,0,0.99,0.01,1.65c0.01,2.31,0.68,4.94,1.34,7.24c2.34,8.89,6.97,13.81,15.22,17.73
			c2.64,1.31,8.25,3.59,11.21,3.58c0.33,0,0.33,0,0.33,0c0.66,0,0.99,0,1.65-0.01c3.95-0.01,8.9,0.63,12.85,0.61
			c0.66,0,0.99,0,1.65-0.01c4.94-0.35,10.54-2.02,16.14-2.04c2.31-0.01,4.28,0.31,6.26,0.96c0.33,0,0.99,0,1.32,0
			c0.99,0,1.98-0.01,2.97-0.01c0.66,0,1.32,0.33,1.98,0.65c2.97,1.96,6.6,3.6,8.59,6.89c1.33,2.3,2,4.93,2,6.91
			c0.02,4.61-2.6,8.25-6.21,12.21c-1.97,2.64-3.6,5.62-6.56,7.27c-3.94,2.32-9.54,3.33-14.15,3.68c-5.6,0.68-11.2,0.7-16.8,0.72
			c-20.09,0.08-40.87-3.8-56.07-17.25c-13.55-12.14-18.23-28.59-19.94-45.72c-0.34-2.96-0.68-5.6-1.02-8.56
			c-0.01-2.64-0.35-4.94-0.36-7.58c0.6-14.83,1.21-29,8.41-41.87c3.27-5.28,4.9-11.55,8.83-16.18c2.95-3.31,6.23-8.26,9.84-10.91
			c5.91-4.63,15.45-9.94,23.02-11.95c8.56-2.34,18.11-1.72,27.01-2.41c0.66,0,0.99,0,1.65-0.01c4.94-0.02,11.87,1.93,15.83,3.23
			c8.25,2.28,13.86,6.87,19.82,13.43c2.65,2.96,4.96,5.58,6.95,9.2c1,1.97,1.33,4.61,2,6.91c1.67,6.25,2.03,13.17,2.05,19.43
			C742.81,266.3,742.18,272.56,737.93,280.81z M686.69,237.19c-3.29,0.01-6.26,0.35-8.89,1.02c-6.25,1.67-12.16,8.28-13.45,14.55
			c0,0.66,0.01,1.65,0.01,2.31c0.01,2.31,0.35,4.28,2.33,5.59c1.32,0.65,2.97,0.98,4.62,0.97c1.98-0.01,3.95-0.34,5.27-0.35
			l18.78-0.07c1.65-0.01,3.3,0.32,4.94,0.31c1.32,0,2.63-0.34,3.62-0.67c2.96-1,3.94-3.97,3.92-7.59c-0.01-3.95-1.35-8.23-3.33-10.2
			C700.54,238.78,693.61,237.16,686.69,237.19z"/>
		<path class="st0" d="M809.92,152.71c0.34,3.95,0.36,7.91,0.37,11.53c0.03,8.24-0.27,16.14-0.57,24.71
			c-0.27,15.82-1.51,34.93-1.46,50.41c0.01,3.62-0.63,8.57-0.61,12.52c0,0.66,0,0.99,0.01,1.65c0.01,2.31,0.02,4.28,0.02,6.59
			c0.02,4.28,0.03,8.89,0.05,13.18c0.01,2.63,0.02,5.27,0.36,7.58c1.05,16.14,2.1,31.95,2.16,48.09c0.01,2.96,0.02,6.26,0.03,9.22
			c-0.28,11.86-9.47,22.44-21,22.48c-1.98,0.01-3.95-0.32-5.93-0.97c-7.92-2.28-11.24-9.84-12.26-17.08
			c-1.69-12.18-1.41-24.04-2.11-36.23c-0.35-5.27-0.37-10.87-0.39-16.14c-0.04-10.87,0.25-21.42,0.21-32.29
			c-0.01-2.97-0.02-5.6-0.03-8.57c-0.01-1.32-0.01-2.31-0.01-3.62c-0.04-9.88,0.9-22.41,1.2-31.63c0.29-11.53-0.09-23.39,1.19-34.93
			c0.96-7.91,0.27-15.81,1.23-23.73c0.32-3.63,0.63-7.58,3.26-9.9c3.61-4.3,10.53-4.65,15.79-5c1.32,0,2.64-0.01,3.95-0.01
			c1.98-0.01,4.28-0.02,5.93,0.64C806.25,142.51,809.57,147.44,809.92,152.71z"/>
	</g>
	<g>
		<path class="st0" d="M410.19,97.8c-3.6-2.3-7.9-3.43-11.85-5.15c-4.53-1.98-9.07-5.37-9.83-10.26c-0.43-2.76,0.43-5.55,1.28-8.21
			c2.78-8.72,5.55-17.45,8.33-26.17c-10.93-1.64-21.11,11.5-31.41,7.49c-7.95-3.1-9.49-13.69-8.91-21.08
			c0.19-2.45,0.64-5.09-0.54-7.25c-4.24-7.74-14.03,6.89-16.24,9.5c-3.17,3.74-7.74,7.13-12.56,6.23c-2.64-0.49-4.86-2.2-6.98-3.86
			c-4.73-3.71-15.21-15.69-21.83-13.64c-6.04,1.88-7.61,23.72-10.22,23.72c-0.88,2.84-1.92,5.91-4.41,7.54
			c-2.08,1.37-4.75,1.42-7.22,1.16c-6.62-0.68-13.03-3.29-18.25-7.42c-1.71-1.35-3.37-2.91-5.46-3.52c-2.09-0.62-4.8,0.12-5.51,2.18
			c-0.54,1.54,0.19,3.21,0.92,4.67c3.85,7.64,8.54,15.08,10.04,23.51c1.5,8.42-1.19,18.37-8.8,22.28
			c-6.64,3.41-14.9,1.34-21.93,3.85c-0.87,0.31-1.75,0.72-2.3,1.45c-1.41,1.88,0.05,4.55,1.74,6.18c4.87,4.67,11.56,6.78,17.64,9.7
			c6.08,2.92,12.2,7.44,13.54,14.05c1.89,9.3-6.24,17.4-8.91,26.5c-0.58,1.98-0.76,4.47,0.84,5.78c0.74,0.61,1.71,0.83,2.66,0.92
			c4.67,0.48,9.17-1.56,13.7-2.76c4.53-1.2,10.01-1.33,13.22,2.09c2.67,2.85,2.84,7.16,2.86,11.07c0.03,5.78,0.06,11.57,0.08,17.35
			c0.01,1.34,0.05,2.8,0.87,3.86c2.35,3.03,7-0.26,9.17-3.42c3.56-5.17,7.07-10.52,11.94-14.48c4.87-3.97,11.44-6.4,17.5-4.75
			c7.1,1.93,11.58,8.65,16.41,14.21c1.49,1.72,3.54,3.52,5.76,2.99c1.85-0.44,2.92-2.33,3.64-4.09c4.01-9.89,4.35-22.68,13.47-28.22
			c10.37-6.3,23.6,1.88,35.68,0.73c1.21-0.11,2.53-0.39,3.27-1.36c1.02-1.35,0.41-3.28-0.34-4.79
			c-4.49-9.06-12.95-17.18-12.08-27.25c0.92-10.56,11.53-17.12,20.83-22.2c1.9-1.03,4.06-2.54,3.93-4.69
			c-0.08-1.36-1.11-2.48-2.18-3.33C411.24,98.5,410.72,98.14,410.19,97.8z M389.68,153.23c-2.07,0-3.43,0.12-4.77-0.03
			c-3.03-0.33-6.05-0.87-9.08-1.16c-15.1-1.48-23.11,3.95-29.04,18.68c-1.41,3.49-2.49,7.11-3.79,10.87
			c-16.36-17.97-35.66-17.65-49.5,1.38c-1.86-8.18-0.96-17.2-8.33-22.94c-7.46-5.81-15.95-2.86-24.85-1.89
			c1.36-3.36,2.61-5.97,3.45-8.69c1.39-4.47,3.28-8.96,3.58-13.53c0.66-10.16-6.37-15.33-14.3-19.52
			c-4.13-2.18-8.31-4.24-13.19-6.72c5.34-1.52,9.69-2.49,13.84-4.01c6.71-2.46,10.79-7.42,12.39-14.4
			c1.96-8.55,0.71-16.83-2.15-24.97c-0.47-1.32-0.85-2.67-1.48-4.7c2.62,0.76,4.57,1.32,6.51,1.89
			c17.64,5.23,26.49-3.88,30.56-18.11c1.11-3.88,1.96-7.84,3.04-12.19c4.34,3.84,8.19,7.57,12.38,10.87
			c11.96,9.45,21.55,8.42,31.72-3.13c0.77-0.87,1.69-1.62,2.99-2.85c1.9,25.83,19.35,28.65,36.66,22.19
			c-1.41,3.7-2.88,6.99-3.94,10.4c-2.26,7.29-3.45,14.83,2.01,21.12c2.75,3.18,6.85,5.24,10.5,7.57c1.88,1.2,4.09,1.87,6.73,3.04
			C380.8,115.2,375.67,131.75,389.68,153.23z"/>
		<path class="st0" d="M333.82,99.21h-0.26c0-9.68,0.27-19.36-0.1-29.02c-0.23-6.07-3.98-8.31-9.52-5.51
			c-5.36,2.7-10.18,6.47-15.19,9.83c-3.46,2.32-4.81,5.8-3.86,9.65c3.8,15.28,7.73,30.52,11.96,45.68c0.52,1.89,2.89,4.05,4.83,4.61
			c6.6,1.9,11.81-2.18,12.06-9.44C334.04,116.42,333.82,107.81,333.82,99.21z"/>
		<path class="st0" d="M333.32,154.61c-2.28,2.24-6.05,2.78-8.86,1.26c-3.53-1.92-5.52-7.8-2.84-11.16c4.26-5.34,12.78-1.6,13.9,3.8
			C335.93,150.44,335.37,152.59,333.32,154.61z"/>
	</g>
</g>
</svg>
